<?xml version="1.0" encoding="UTF-8" standalone="no"?>
<svg viewBox="0 0 1200 800" xmlns="http://www.w3.org/2000/svg">
  <!-- Background -->
  <rect width="1200" height="800" fill="#f8f9fa"/>
  
  <!-- Left Sidebar -->
  <rect x="0" y="0" width="240" height="800" fill="#212529"/>
  
  <!-- Logo -->
  <rect x="20" y="20" width="200" height="60" rx="4" fill="#ffffff" opacity="0.1"/>
  <text x="50" y="60" font-family="Arial, sans-serif" font-size="24" font-weight="bold" fill="#ffffff">ADMIN PANEL</text>
  
  <!-- Sidebar Menu -->
  <g transform="translate(20, 120)">
    <!-- Dashboard Item - Active -->
    <rect x="0" y="0" width="200" height="40" rx="4" fill="#ffffff" opacity="0.1"/>
    <circle cx="25" cy="20" r="10" fill="#ffffff"/>
    <text x="50" y="25" font-family="Arial, sans-serif" font-size="14" fill="#ffffff">Dashboard</text>
    
    <!-- Tenants Item -->
    <circle cx="25" cy="70" r="10" fill="#ffffff" opacity="0.7"/>
    <text x="50" y="75" font-family="Arial, sans-serif" font-size="14" fill="#ffffff" opacity="0.7">Tenants</text>
    
    <!-- Users Item -->
    <circle cx="25" cy="120" r="10" fill="#ffffff" opacity="0.7"/>
    <text x="50" y="125" font-family="Arial, sans-serif" font-size="14" fill="#ffffff" opacity="0.7">Users</text>
    
    <!-- Storage Item -->
    <circle cx="25" cy="170" r="10" fill="#ffffff" opacity="0.7"/>
    <text x="50" y="175" font-family="Arial, sans-serif" font-size="14" fill="#ffffff" opacity="0.7">Storage</text>
    
    <!-- AI Models Item -->
    <circle cx="25" cy="220" r="10" fill="#ffffff" opacity="0.7"/>
    <text x="50" y="225" font-family="Arial, sans-serif" font-size="14" fill="#ffffff" opacity="0.7">AI Models</text>
    
    <!-- Settings Item -->
    <circle cx="25" cy="270" r="10" fill="#ffffff" opacity="0.7"/>
    <text x="50" y="275" font-family="Arial, sans-serif" font-size="14" fill="#ffffff" opacity="0.7">Settings</text>
  </g>
  
  <!-- User Profile -->
  <circle cx="50" cy="740" r="25" fill="#ffffff" opacity="0.1"/>
  <text x="90" y="745" font-family="Arial, sans-serif" font-size="14" fill="#ffffff">System Admin</text>
  
  <!-- Main Content Area -->
  <!-- Header -->
  <rect x="240" y="0" width="960" height="70" fill="#ffffff" stroke="#e9ecef" stroke-width="1"/>
  <text x="270" y="45" font-family="Arial, sans-serif" font-size="24" font-weight="bold" fill="#212529">Admin Dashboard</text>
  
  <!-- Quick Stats -->
  <g transform="translate(270, 100)">
    <!-- Total Tenants Stat -->
    <rect x="0" y="0" width="200" height="100" rx="4" fill="#ffffff" stroke="#e9ecef" stroke-width="1"/>
    <circle cx="40" cy="30" r="15" fill="#0d6efd" opacity="0.1"/>
    <text x="40" y="35" font-family="Arial, sans-serif" font-size="14" text-anchor="middle" fill="#0d6efd">🏢</text>
    <text x="100" y="35" font-family="Arial, sans-serif" font-size="14" fill="#495057">Total Tenants</text>
    <text x="100" y="70" font-family="Arial, sans-serif" font-size="24" font-weight="bold" fill="#212529">5</text>
    
    <!-- Total Users Stat -->
    <rect x="220" y="0" width="200" height="100" rx="4" fill="#ffffff" stroke="#e9ecef" stroke-width="1"/>
    <circle cx="260" cy="30" r="15" fill="#198754" opacity="0.1"/>
    <text x="260" y="35" font-family="Arial, sans-serif" font-size="14" text-anchor="middle" fill="#198754">👥</text>
    <text x="320" y="35" font-family="Arial, sans-serif" font-size="14" fill="#495057">Total Users</text>
    <text x="320" y="70" font-family="Arial, sans-serif" font-size="24" font-weight="bold" fill="#212529">222</text>
    
    <!-- Storage Stat -->
    <rect x="440" y="0" width="200" height="100" rx="4" fill="#ffffff" stroke="#e9ecef" stroke-width="1"/>
    <circle cx="480" cy="30" r="15" fill="#dc3545" opacity="0.1"/>
    <text x="480" y="35" font-family="Arial, sans-serif" font-size="14" text-anchor="middle" fill="#dc3545">💾</text>
    <text x="540" y="35" font-family="Arial, sans-serif" font-size="14" fill="#495057">Storage Used</text>
    <text x="540" y="70" font-family="Arial, sans-serif" font-size="24" font-weight="bold" fill="#212529">9.04 TB</text>
    
    <!-- AI Requests Stat -->
    <rect x="660" y="0" width="200" height="100" rx="4" fill="#ffffff" stroke="#e9ecef" stroke-width="1"/>
    <circle cx="700" cy="30" r="15" fill="#6f42c1" opacity="0.1"/>
    <text x="700" y="35" font-family="Arial, sans-serif" font-size="14" text-anchor="middle" fill="#6f42c1">🧠</text>
    <text x="760" y="35" font-family="Arial, sans-serif" font-size="14" fill="#495057">AI Requests (May)</text>
    <text x="760" y="70" font-family="Arial, sans-serif" font-size="24" font-weight="bold" fill="#212529">11,964</text>
  </g>
  
  <!-- Tenant Overview Section -->
  <rect x="270" y="230" width="860" height="250" rx="4" fill="#ffffff" stroke="#e9ecef" stroke-width="1"/>
  <text x="300" y="270" font-family="Arial, sans-serif" font-size="18" font-weight="bold" fill="#212529">Tenant Overview</text>
  
  <!-- Tenant Table -->
  <!-- Headers -->
  <rect x="300" y="290" width="800" height="40" fill="#f8f9fa"/>
  <text x="320" y="315" font-family="Arial, sans-serif" font-size="14" font-weight="bold" fill="#212529">Tenant</text>
  <text x="520" y="315" font-family="Arial, sans-serif" font-size="14" font-weight="bold" fill="#212529">Industry</text>
  <text x="650" y="315" font-family="Arial, sans-serif" font-size="14" font-weight="bold" fill="#212529">Tier</text>
  <text x="750" y="315" font-family="Arial, sans-serif" font-size="14" font-weight="bold" fill="#212529">Users</text>
  <text x="850" y="315" font-family="Arial, sans-serif" font-size="14" font-weight="bold" fill="#212529">Storage</text>
  <text x="950" y="315" font-family="Arial, sans-serif" font-size="14" font-weight="bold" fill="#212529">Status</text>
  
  <!-- Row 1: ACME Corp -->
  <rect x="300" y="330" width="800" height="40" fill="#ffffff" stroke="#e9ecef" stroke-width="1"/>
  <text x="320" y="355" font-family="Arial, sans-serif" font-size="14" fill="#212529">ACME Corporation</text>
  <text x="520" y="355" font-family="Arial, sans-serif" font-size="14" fill="#6c757d">Technology</text>
  <text x="650" y="355" font-family="Arial, sans-serif" font-size="14" fill="#0d6efd">Enterprise</text>
  <text x="750" y="355" font-family="Arial, sans-serif" font-size="14" fill="#212529">78 / 100</text>
  <text x="850" y="355" font-family="Arial, sans-serif" font-size="14" fill="#212529">3.2 / 5 TB</text>
  <rect x="930" y="340" width="60" height="20" rx="10" fill="#198754" opacity="0.1"/>
  <text x="960" y="355" font-family="Arial, sans-serif" font-size="12" text-anchor="middle" fill="#198754">Active</text>
  
  <!-- Row 2: Globex Solutions -->
  <rect x="300" y="370" width="800" height="40" fill="#ffffff" stroke="#e9ecef" stroke-width="1"/>
  <text x="320" y="395" font-family="Arial, sans-serif" font-size="14" fill="#212529">Globex Solutions</text>
  <text x="520" y="395" font-family="Arial, sans-serif" font-size="14" fill="#6c757d">Manufacturing</text>
  <text x="650" y="395" font-family="Arial, sans-serif" font-size="14" fill="#fd7e14">Business</text>
  <text x="750" y="395" font-family="Arial, sans-serif" font-size="14" fill="#212529">42 / 50</text>
  <text x="850" y="395" font-family="Arial, sans-serif" font-size="14" fill="#212529">1.6 / 2 TB</text>
  <rect x="930" y="380" width="60" height="20" rx="10" fill="#198754" opacity="0.1"/>
  <text x="960" y="395" font-family="Arial, sans-serif" font-size="12" text-anchor="middle" fill="#198754">Active</text>
  
  <!-- Row 3: SitTech Innovations -->
  <rect x="300" y="410" width="800" height="40" fill="#ffffff" stroke="#e9ecef" stroke-width="1"/>
  <text x="320" y="435" font-family="Arial, sans-serif" font-size="14" fill="#212529">SitTech Innovations</text>
  <text x="520" y="435" font-family="Arial, sans-serif" font-size="14" fill="#6c757d">Healthcare</text>
  <text x="650" y="435" font-family="Arial, sans-serif" font-size="14" fill="#fd7e14">Business</text>
  <text x="750" y="435" font-family="Arial, sans-serif" font-size="14" fill="#212529">28 / 30</text>
  <text x="850" y="435" font-family="Arial, sans-serif" font-size="14" fill="#212529">1.0 / 1.5 TB</text>
  <rect x="930" y="420" width="60" height="20" rx="10" fill="#198754" opacity="0.1"/>
  <text x="960" y="435" font-family="Arial, sans-serif" font-size="12" text-anchor="middle" fill="#198754">Active</text>
  
  <!-- Row 4: VentureBoost Capital -->
  <rect x="300" y="450" width="800" height="40" fill="#ffffff" stroke="#e9ecef" stroke-width="1"/>
  <text x="320" y="475" font-family="Arial, sans-serif" font-size="14" fill="#212529">VentureBoost Capital</text>
  <text x="520" y="475" font-family="Arial, sans-serif" font-size="14" fill="#6c757d">Finance</text>
  <text x="650" y="475" font-family="Arial, sans-serif" font-size="14" fill="#0d6efd">Enterprise</text>
  <text x="750" y="475" font-family="Arial, sans-serif" font-size="14" fill="#212529">62 / 75</text>
  <text x="850" y="475" font-family="Arial, sans-serif" font-size="14" fill="#212529">2.9 / 4 TB</text>
  <rect x="930" y="460" width="60" height="20" rx="10" fill="#198754" opacity="0.1"/>
  <text x="960" y="475" font-family="Arial, sans-serif" font-size="12" text-anchor="middle" fill="#198754">Active</text>
  
  <!-- Usage Analytics Section -->
  <rect x="270" y="500" width="420" height="270" rx="4" fill="#ffffff" stroke="#e9ecef" stroke-width="1"/>
  <text x="300" y="540" font-family="Arial, sans-serif" font-size="18" font-weight="bold" fill="#212529">Storage Usage</text>
  
  <!-- Storage Chart -->
  <rect x="320" y="570" width="320" height="160" fill="#f8f9fa" rx="4"/>
  
  <!-- Bar Chart Visualization -->
  <!-- ACME Corp Bar -->
  <rect x="350" y="590" width="60" height="120" fill="#0d6efd" opacity="0.1"/>
  <rect x="350" y="650" width="60" height="60" fill="#0d6efd"/>
  <text x="380" y="710" font-family="Arial, sans-serif" font-size="12" text-anchor="middle" fill="#6c757d">ACME</text>
  <text x="380" y="640" font-family="Arial, sans-serif" font-size="12" text-anchor="middle" fill="#212529">3.2TB</text>
  
  <!-- Globex Bar -->
  <rect x="430" y="590" width="60" height="120" fill="#fd7e14" opacity="0.1"/>
  <rect x="430" y="685" width="60" height="25" fill="#fd7e14"/>
  <text x="460" y="710" font-family="Arial, sans-serif" font-size="12" text-anchor="middle" fill="#6c757d">Globex</text>
  <text x="460" y="675" font-family="Arial, sans-serif" font-size="12" text-anchor="middle" fill="#212529">1.6TB</text>
  
  <!-- SitTech Bar -->
  <rect x="510" y="590" width="60" height="120" fill="#20c997" opacity="0.1"/>
  <rect x="510" y="695" width="60" height="15" fill="#20c997"/>
  <text x="540" y="710" font-family="Arial, sans-serif" font-size="12" text-anchor="middle" fill="#6c757d">SitTech</text>
  <text x="540" y="685" font-family="Arial, sans-serif" font-size="12" text-anchor="middle" fill="#212529">1.0TB</text>
  
  <!-- VentureBoost Bar -->
  <rect x="590" y="590" width="60" height="120" fill="#6f42c1" opacity="0.1"/>
  <rect x="590" y="655" width="60" height="55" fill="#6f42c1"/>
  <text x="620" y="710" font-family="Arial, sans-serif" font-size="12" text-anchor="middle" fill="#6c757d">Venture</text>
  <text x="620" y="645" font-family="Arial, sans-serif" font-size="12" text-anchor="middle" fill="#212529">2.9TB</text>
  
  <!-- AI Requests Analytics Section -->
  <rect x="710" y="500" width="420" height="270" rx="4" fill="#ffffff" stroke="#e9ecef" stroke-width="1"/>
  <text x="740" y="540" font-family="Arial, sans-serif" font-size="18" font-weight="bold" fill="#212529">AI Usage (May 2025)</text>
  
  <!-- AI Usage Chart -->
  <rect x="760" y="570" width="320" height="160" fill="#f8f9fa" rx="4"/>
  
  <!-- Pie Chart Visualization -->
  <!-- Center of pie chart -->
  <circle cx="920" cy="650" r="80" fill="#f8f9fa" stroke="#e9ecef" stroke-width="1"/>
  
  <!-- Pie slices -->
  <path d="M 920 650 L 920 570 A 80 80 0 0 1 990 630 Z" fill="#0d6efd"/>
  <path d="M 920 650 L 990 630 A 80 80 0 0 1 970 710 Z" fill="#fd7e14"/>
  <path d="M 920 650 L 970 710 A 80 80 0 0 1 880 725 Z" fill="#20c997"/>
  <path d="M 920 650 L 880 725 A 80 80 0 0 1 850 590 Z" fill="#6f42c1"/>
  <path d="M 920 650 L 850 590 A 80 80 0 0 1 920 570 Z" fill="#dc3545"/>
  
  <!-- Legend -->
  <rect x="760" y="590" width="10" height="10" fill="#0d6efd"/>
  <text x="780" y="600" font-family="Arial, sans-serif" font-size="12" fill="#212529">ACME - 4,356 (36%)</text>
  
  <rect x="760" y="620" width="10" height="10" fill="#fd7e14"/>
  <text x="780" y="630" font-family="Arial, sans-serif" font-size="12" fill="#212529">Globex - 2,145 (18%)</text>
  
  <rect x="760" y="650" width="10" height="10" fill="#20c997"/>
  <text x="780" y="660" font-family="Arial, sans-serif" font-size="12" fill="#212529">SitTech - 1,896 (16%)</text>
  
  <rect x="760" y="680" width="10" height="10" fill="#6f42c1"/>
  <text x="780" y="690" font-family="Arial, sans-serif" font-size="12" fill="#212529">VentureBoost - 3,567 (30%)</text>
  
  <rect x="760" y="710" width="10" height="10" fill="#dc3545"/>
  <text x="780" y="720" font-family="Arial, sans-serif" font-size="12" fill="#212529">EcoSmart - 0 (0%)</text>
</svg>